name ./resultDataOpenSim/trcMotMarkerGrf/sub10/grf-05-04.mot
datacolumns 19
datarows 30
range 1.03200000 1.14800000
endheader

                time	     ground_force_vx	     ground_force_vy	     ground_force_vz	     ground_force_px	     ground_force_py	     ground_force_pz	   l_ground_force_vx	   l_ground_force_vy	   l_ground_force_vz	   l_ground_force_px	   l_ground_force_py	   l_ground_force_pz	     ground_torque_x	     ground_torque_y	     ground_torque_z	   l_ground_torque_x	   l_ground_torque_y	   l_ground_torque_z	
          1.03200000	          0.00000000	          0.00000000	          0.00000000	          0.00000000	          0.00000000	          0.00000000	         16.60611847	        241.47810098	         18.69499207	          0.01016497	         -0.10000000	         -0.11475532	          0.00000000	          0.00000000	          0.00000000	          0.00000000	         -1.24926475	          0.00000000	
          1.03600000	          0.00000000	          0.00000000	          0.00000000	          0.00000000	          0.00000000	          0.00000000	         19.13614154	        248.94820213	         18.43587956	          0.01009034	         -0.10000000	         -0.11457300	          0.00000000	          0.00000000	          0.00000000	          0.00000000	         -1.42835739	          0.00000000	
          1.04000000	          0.00000000	          0.00000000	          0.00000000	          0.00000000	          0.00000000	          0.00000000	         21.47756965	        258.63400423	         18.05873792	          0.00997440	         -0.10000000	         -0.11429519	          0.00000000	          0.00000000	          0.00000000	          0.00000000	         -1.64398324	          0.00000000	
          1.04400000	          0.00000000	          0.00000000	          0.00000000	          0.00000000	          0.00000000	          0.00000000	         23.62948179	        270.61303505	         17.55985560	          0.00989449	         -0.10000000	         -0.11390735	          0.00000000	          0.00000000	          0.00000000	          0.00000000	         -1.89714237	          0.00000000	
          1.04800000	          0.00000000	          0.00000000	          0.00000000	          0.00000000	          0.00000000	          0.00000000	         25.60846285	        284.86794254	         16.96359727	          0.00995790	         -0.10000000	         -0.11340000	          0.00000000	          0.00000000	          0.00000000	          0.00000000	         -2.18564350	          0.00000000	
          1.05200000	          0.00000000	          0.00000000	          0.00000000	          0.00000000	          0.00000000	          0.00000000	         27.45147429	        301.30297120	         16.31010542	          0.01020260	         -0.10000000	         -0.11277405	          0.00000000	          0.00000000	          0.00000000	          0.00000000	         -2.50472275	          0.00000000	
          1.05600000	          0.00000000	          0.00000000	          0.00000000	          0.00000000	          0.00000000	          0.00000000	         29.19935010	        319.81124993	         15.63370654	          0.01059090	         -0.10000000	         -0.11203022	          0.00000000	          0.00000000	          0.00000000	          0.00000000	         -2.84804020	          0.00000000	
          1.06000000	          0.00000000	          0.00000000	          0.00000000	          0.00000000	          0.00000000	          0.00000000	         30.88375113	        340.31383960	         14.95225438	          0.01106511	         -0.10000000	         -0.11115620	          0.00000000	          0.00000000	          0.00000000	          0.00000000	         -3.20874588	          0.00000000	
          1.06400000	          0.00000000	          0.00000000	          0.00000000	          0.00000000	          0.00000000	          0.00000000	         32.53808405	        362.70272596	         14.26969550	          0.01157763	         -0.10000000	         -0.11015847	          0.00000000	          0.00000000	          0.00000000	          0.00000000	         -3.58039058	          0.00000000	
          1.06800000	          0.00000000	          0.00000000	          0.00000000	          0.00000000	          0.00000000	          0.00000000	         34.21468731	        386.76278686	         13.58070650	          0.01208583	         -0.10000000	         -0.10911463	          0.00000000	          0.00000000	          0.00000000	          0.00000000	         -3.95759421	          0.00000000	
          1.07200000	          0.00000000	          0.00000000	          0.00000000	          0.00000000	          0.00000000	          0.00000000	         35.98100002	        412.17958167	         12.88018863	          0.01252478	         -0.10000000	         -0.10816663	          0.00000000	          0.00000000	          0.00000000	          0.00000000	         -4.33640983	          0.00000000	
          1.07600000	          0.00000000	          0.00000000	          0.00000000	          0.00000000	          0.00000000	          0.00000000	         37.90057519	        438.64308111	         12.18110980	          0.01282891	         -0.10000000	         -0.10743001	          0.00000000	          0.00000000	          0.00000000	          0.00000000	         -4.71428164	          0.00000000	
          1.08000000	          0.00000000	          0.00000000	          0.00000000	          0.00000000	          0.00000000	          0.00000000	         40.02699246	        465.96794826	         11.52588447	          0.01299870	         -0.10000000	         -0.10691693	          0.00000000	          0.00000000	          0.00000000	          0.00000000	         -5.08957603	          0.00000000	
          1.08400000	          0.00000000	          0.00000000	          0.00000000	          0.00000000	          0.00000000	          0.00000000	         42.42013750	        494.07857259	         10.97930284	          0.01308612	         -0.10000000	         -0.10654399	          0.00000000	          0.00000000	          0.00000000	          0.00000000	         -5.46088288	          0.00000000	
          1.08800000	          0.00000000	          0.00000000	          0.00000000	          0.00000000	          0.00000000	          0.00000000	         45.15684494	        522.86009646	         10.60405632	          0.01312899	         -0.10000000	         -0.10623277	          0.00000000	          0.00000000	          0.00000000	          0.00000000	         -5.82642527	          0.00000000	
          1.09200000	          0.00000000	          0.00000000	          0.00000000	          0.00000000	          0.00000000	          0.00000000	         48.31778570	        552.09721575	         10.43686797	          0.01315236	         -0.10000000	         -0.10594110	          0.00000000	          0.00000000	          0.00000000	          0.00000000	         -6.18378406	          0.00000000	
          1.09600000	          0.00000000	          0.00000000	          0.00000000	          0.00000000	          0.00000000	          0.00000000	         51.97890204	        581.54657323	         10.48794227	          0.01316434	         -0.10000000	         -0.10566093	          0.00000000	          0.00000000	          0.00000000	          0.00000000	         -6.52988817	          0.00000000	
          1.10000000	          0.00000000	          0.00000000	          0.00000000	          0.00000000	          0.00000000	          0.00000000	         56.21031742	        610.97934176	         10.76247982	          0.01317766	         -0.10000000	         -0.10539912	          0.00000000	          0.00000000	          0.00000000	          0.00000000	         -6.86117330	          0.00000000	
          1.10400000	          0.00000000	          0.00000000	          0.00000000	          0.00000000	          0.00000000	          0.00000000	         61.05439423	        640.17662989	         11.27804310	          0.01319711	         -0.10000000	         -0.10516084	          0.00000000	          0.00000000	          0.00000000	          0.00000000	         -7.17391660	          0.00000000	
          1.10800000	          0.00000000	          0.00000000	          0.00000000	          0.00000000	          0.00000000	          0.00000000	         66.50336443	        668.93361357	         12.05070486	          0.01321037	         -0.10000000	         -0.10493059	          0.00000000	          0.00000000	          0.00000000	          0.00000000	         -7.46468740	          0.00000000	
          1.11200000	          0.00000000	          0.00000000	          0.00000000	          0.00000000	          0.00000000	          0.00000000	         72.51137445	        697.04064370	         13.06588197	          0.01323352	         -0.10000000	         -0.10469605	          0.00000000	          0.00000000	          0.00000000	          0.00000000	         -7.73069626	          0.00000000	
          1.11600000	          0.00000000	          0.00000000	          0.00000000	          0.00000000	          0.00000000	          0.00000000	         79.02706853	        724.26510158	         14.27381539	          0.01329568	         -0.10000000	         -0.10445725	          0.00000000	          0.00000000	          0.00000000	          0.00000000	         -7.96988660	          0.00000000	
          1.12000000	          0.00000000	          0.00000000	          0.00000000	          0.00000000	          0.00000000	          0.00000000	         86.01028583	        750.39078942	         15.60888897	          0.01341151	         -0.10000000	         -0.10421854	          0.00000000	          0.00000000	          0.00000000	          0.00000000	         -8.18083989	          0.00000000	
          1.12400000	          0.00000000	          0.00000000	          0.00000000	          0.00000000	          0.00000000	          0.00000000	         93.42582139	        775.26764460	         17.00762751	          0.01357892	         -0.10000000	         -0.10398490	          0.00000000	          0.00000000	          0.00000000	          0.00000000	         -8.36266907	          0.00000000	
          1.12800000	          0.00000000	          0.00000000	          0.00000000	          0.00000000	          0.00000000	          0.00000000	        101.23374278	        798.80047829	         18.41485264	          0.01378881	         -0.10000000	         -0.10375495	          0.00000000	          0.00000000	          0.00000000	          0.00000000	         -8.51496369	          0.00000000	
          1.13200000	          0.00000000	          0.00000000	          0.00000000	          0.00000000	          0.00000000	          0.00000000	        109.38380609	        820.90000292	         19.78685726	          0.01404217	         -0.10000000	         -0.10351975	          0.00000000	          0.00000000	          0.00000000	          0.00000000	         -8.63767713	          0.00000000	
          1.13600000	          0.00000000	          0.00000000	          0.00000000	          0.00000000	          0.00000000	          0.00000000	        117.81288511	        841.46848752	         21.09561465	          0.01434437	         -0.10000000	         -0.10326858	          0.00000000	          0.00000000	          0.00000000	          0.00000000	         -8.73082489	          0.00000000	
          1.14000000	          0.00000000	          0.00000000	          0.00000000	          0.00000000	          0.00000000	          0.00000000	        126.44270389	        860.43243112	         22.32075944	          0.01467695	         -0.10000000	         -0.10300332	          0.00000000	          0.00000000	          0.00000000	          0.00000000	         -8.79403051	          0.00000000	
          1.14400000	          0.00000000	          0.00000000	          0.00000000	          0.00000000	          0.00000000	          0.00000000	        135.17354046	        877.76985364	         23.44393983	          0.01501163	         -0.10000000	         -0.10272949	          0.00000000	          0.00000000	          0.00000000	          0.00000000	         -8.82612904	          0.00000000	
          1.14800000	          0.00000000	          0.00000000	          0.00000000	          0.00000000	          0.00000000	          0.00000000	        143.88901275	        893.48147465	         24.46654372	          0.01533612	         -0.10000000	         -0.10244910	          0.00000000	          0.00000000	          0.00000000	          0.00000000	         -8.82507223	          0.00000000	
